PathFileType	4	(X/Y/Z)	..\data\2015007\dynamic\2015007_C4_04.trc
DataRate	CameraRate	NumFrames	NumMarkers	Units	OrigDataRate	OrigDataStartFrame	OrigNumFrames
100.000000	100.000000	4	52	mm	100.000000	81	162
Frame#	Time	L_IAS			L_IPS			R_IPS			R_IAS			L_FTC			L_FLE			L_FME			L_FAX			L_TTC			L_FAL			L_TAM			L_FCC			L_FM1			L_FM2			L_FM5			R_FTC			R_FLE			R_FME			R_FAX			R_TTC			R_FAL			R_TAM			R_FCC			R_FM1			R_FM2			R_FM5			CV7			TV10			SXS			SJN			L_SIA			L_SRS			L_SAA			L_SAE			L_HLE			L_HME			L_UOA			L_RSP			L_UHE			L_HM2			L_HM5			R_SIA			R_SRS			R_SAA			R_SAE			R_HLE			R_HME			R_UOA			R_RSP			R_UHE			R_HM2			R_HM5			
		X1	Y1	Z1	X2	Y2	Z2	X3	Y3	Z3	X4	Y4	Z4	X5	Y5	Z5	X6	Y6	Z6	X7	Y7	Z7	X8	Y8	Z8	X9	Y9	Z9	X10	Y10	Z10	X11	Y11	Z11	X12	Y12	Z12	X13	Y13	Z13	X14	Y14	Z14	X15	Y15	Z15	X16	Y16	Z16	X17	Y17	Z17	X18	Y18	Z18	X19	Y19	Z19	X20	Y20	Z20	X21	Y21	Z21	X22	Y22	Z22	X23	Y23	Z23	X24	Y24	Z24	X25	Y25	Z25	X26	Y26	Z26	X27	Y27	Z27	X28	Y28	Z28	X29	Y29	Z29	X30	Y30	Z30	X31	Y31	Z31	X32	Y32	Z32	X33	Y33	Z33	X34	Y34	Z34	X35	Y35	Z35	X36	Y36	Z36	X37	Y37	Z37	X38	Y38	Z38	X39	Y39	Z39	X40	Y40	Z40	X41	Y41	Z41	X42	Y42	Z42	X43	Y43	Z43	X44	Y44	Z44	X45	Y45	Z45	X46	Y46	Z46	X47	Y47	Z47	X48	Y48	Z48	X49	Y49	Z49	X50	Y50	Z50	X51	Y51	Z51	X52	Y52	Z52	

82	0.8100000000000001	831.5780029296877	914.9795532226565	-385.6570434570314	614.7598266601564	926.7324218750002	-303.3777770996094	626.9530639648439	925.7192382812502	-198.9283294677735	844.1589355468752	912.3521118164065	-137.74755859375	745.5659790039064	808.354431152344	-441.0472106933595	791.2661743164065	438.4239196777345	-367.0324096679688	789.9863891601565	429.0100708007814	-244.3295288085938	773.2648925781252	380.2276916503907	-370.3666076660157	823.6975708007815	371.3457336425782	-317.6371459960938	724.9741210937501	63.69427490234376	-315.0574340820313	745.2781982421876	70.20230865478517	-234.080795288086	679.9395141601564	16.75861167907715	-262.3281555175782	855.071716308594	19.3925952911377	-257.0198974609376	856.1953735351565	29.1180763244629	-308.7759094238282	798.3192138671877	13.59844875335694	-347.6449584960938	759.6019897460939	809.4175415039065	-70.7887649536133	850.3023071289065	448.3281860351564	-111.005615234375	870.0466918945315	423.4535522460939	-234.3049926757813	817.1688232421877	410.2758178710939	-106.9645538330078	862.9034423828127	371.3769226074219	-140.4698638916016	602.9539794921876	162.7339477539063	-132.9015350341797	646.0073242187501	145.0115509033203	-204.8067321777344	552.0933227539064	139.6399688720703	-193.7188720703126	687.5208740234376	39.75349807739259	-166.2935333251953	683.0056152343751	57.92752838134767	-127.5577011108399	625.7539672851564	71.27525329589845	-89.26805877685548	727.4696655273439	1416.087158203125	-240.7142181396485	626.1871948242189	1178.648803710938	-255.9286804199219	893.941345214844	1080.751953125	-270.3231201171876	839.1395263671877	1332.3349609375	-256.6477966308594	620.6911621093751	1227.868896484375	-338.7128906250001	663.6754760742189	1356.072875976563	-345.2328186035157	703.3107910156251	1362.787963867188	-410.0794372558595	753.6658935546876	1368.991333007813	-424.7328491210939	699.8668212890626	1060.998901367188	-501.0404052734376	684.1416015625001	1050.838989257813	-424.4119567871095	673.9852905273439	1037.835083007813	-472.1065063476564	785.5857543945315	834.4236450195315	-496.4428100585939	715.7562255859376	837.818786621094	-535.9089965820314	803.2512207031252	771.3203125000002	-511.4471435546876	712.0622558593751	776.3858032226565	-540.7897338867189	626.0879516601564	1218.030883789063	-172.7858581542969	671.2207641601564	1341.402587890625	-164.0276641845703	726.8663330078126	1340.275268554688	-95.4470672607422	775.9594726562502	1343.625244140625	-79.8589553833008	761.2149658203126	1024.490478515625	-18.12898445129395	722.1029663085939	1014.203002929688	-78.97993469238283	734.6185913085939	993.3443603515627	-35.04823684692384	865.382263183594	817.7336425781252	-41.71015930175782	820.1778564453127	812.3223266601565	2.198090791702271	900.621276855469	744.2977905273439	-37.90795135498048	830.6091918945315	745.1314086914064	11.21607780456543	
83	0.8200000000000001	841.1860961914065	915.6832275390627	-386.8453979492189	624.7019653320314	927.7049560546877	-303.3799438476563	637.4159545898439	926.7481079101565	-199.0620880126954	854.5866699218752	913.713317871094	-139.1168975830078	754.1864624023439	808.726013183594	-441.603973388672	792.8315429687502	438.3383789062501	-367.6492004394532	792.112976074219	428.7210388183595	-244.7774505615235	774.2805175781252	380.3818359375001	-370.9140319824219	824.8980102539065	371.0477600097657	-318.4348754882813	725.0051269531251	63.84296035766603	-315.1010437011719	745.4735717773439	70.36470031738283	-234.1875915527344	680.0766601562501	17.07671546936036	-262.2532043457032	855.1380615234377	19.45523071289063	-257.1842956542969	856.2840576171877	29.11903190612794	-308.9065551757813	798.3397216796877	13.56212234497071	-347.7858581542969	771.384704589844	810.743347167969	-71.04386138916017	868.876647949219	450.7789916992189	-112.2351303100586	888.6348266601565	426.8047485351564	-235.7723236083985	836.916198730469	411.1956481933595	-108.1745681762696	883.8411254882815	374.1983947753907	-142.0738677978516	633.2882080078126	153.9613800048828	-133.2562866210938	676.5296020507814	138.6356811523438	-205.3193359375001	582.7419433593751	127.8740921020508	-193.4763946533204	724.4357299804689	36.75179290771485	-167.021484375	719.4075927734376	54.99464035034181	-128.3382568359375	661.8491821289064	64.69166564941408	-89.39402770996095	737.9980468750001	1416.824096679688	-241.5424041748047	636.5991821289064	1179.463623046875	-257.4934997558594	904.0867309570315	1081.677368164063	-270.4178466796876	849.6129150390627	1333.030395507813	-257.0725708007813	631.5134277343751	1228.818115234375	-340.2180786132813	674.5874023437501	1357.020751953125	-346.3610839843751	714.4947509765626	1363.885131835938	-411.0133666992189	764.9674682617189	1370.104736328125	-425.3551025390626	714.3823242187501	1061.620727539063	-502.7033081054689	698.1746215820314	1051.223266601563	-426.2066040039064	688.5796508789064	1037.992065429688	-474.0066528320314	803.7125244140627	836.3433837890627	-497.5178222656251	734.0712280273439	838.662048339844	-537.4881591796876	822.7194824218752	773.7729492187502	-512.6222534179689	731.6185302734376	777.209167480469	-542.5527343750001	636.1356811523439	1218.789672851563	-174.4288177490235	681.3999633789064	1342.088012695313	-165.2844848632813	736.4566650390626	1340.849975585938	-96.476188659668	785.4139404296877	1344.294921875	-80.4457473754883	768.7452392578127	1025.309448242188	-18.98840522766114	729.9003295898439	1015.45751953125	-80.15095520019533	742.1017456054689	994.465026855469	-36.05549240112305	871.0930786132815	817.5815429687502	-41.64582061767579	825.475769042969	812.528503417969	1.996466040611268	905.3937988281252	743.7460937500001	-37.63713836669923	835.1937255859377	745.2554931640626	11.07956409454346	
84	0.8300000000000001	850.7381591796877	916.1861572265627	-388.0554809570314	634.7471923828126	928.433532714844	-303.2369689941407	647.9216308593751	927.5383300781252	-198.9910278320313	865.0747680664065	914.6944580078127	-140.5069580078125	762.8215332031251	808.9832763671877	-442.1295776367189	794.377380371094	438.2569580078126	-368.2097167968751	793.9973144531252	428.4271545410157	-245.1540985107422	775.2650146484377	380.5508728027344	-371.4195556640626	826.0717773437502	370.7568359375001	-319.1864318847657	725.0457153320314	64.01412200927736	-315.1004943847657	745.7025756835939	70.58319091796876	-234.2607421875001	680.2112426757814	17.41329765319825	-262.1274414062501	855.2442626953127	19.54480361938477	-257.3525695800782	856.3927001953127	29.14900207519532	-309.0369262695313	798.3692626953127	13.55612277984619	-347.9052124023438	783.1623535156252	811.772155761719	-71.23827362060548	886.9948730468752	452.9790649414064	-113.5271530151367	906.3592529296877	429.9050292968751	-237.4619140625001	856.3426513671877	411.7494506835939	-109.3715515136719	904.3901977539065	376.8982543945313	-143.7869262695313	664.5564575195314	144.6768493652344	-133.4362487792969	707.9194946289064	131.9443817138672	-205.6848754882813	614.5657348632814	115.6129531860352	-193.0542144775391	762.1571655273439	33.78058242797852	-167.7826538085938	756.5101928710939	51.93943023681642	-129.1146087646485	698.7924804687501	57.86112213134767	-89.51388549804689	748.5225219726564	1417.3515625	-242.3570251464844	647.0107421875001	1180.059692382813	-259.0011596679688	914.1697387695315	1082.357055664063	-270.5550537109376	860.0855102539065	1333.514526367188	-257.4767456054688	642.3666381835939	1229.536376953125	-341.6802368164063	685.5038452148439	1357.735107421875	-347.4690856933594	725.7015380859376	1364.7275390625	-411.9205017089845	776.2632446289065	1370.98388671875	-425.963104248047	728.9295043945314	1062.043701171875	-504.3167724609376	712.2513427734376	1051.399291992188	-427.9677734375001	703.2192382812501	1037.958862304688	-475.8597412109376	821.8925781250002	838.1503906250002	-498.4665527343751	752.5256958007814	839.3630981445315	-538.9461059570314	842.3006591796877	776.1552734375002	-513.6723632812501	751.2949829101564	777.9080810546877	-544.1342773437501	646.1951904296876	1219.343872070313	-176.0175476074219	691.5587768554689	1342.580444335938	-166.5217590332032	746.0734252929689	1341.23486328125	-97.46314239501956	794.877136230469	1344.7529296875	-81.01718139648439	776.2867431640627	1025.957153320313	-19.77088928222657	737.5880126953126	1016.537414550781	-81.25315093994142	749.5875244140626	995.401550292969	-36.98847579956055	876.7432861328127	817.2783203125002	-41.44456481933594	830.7691040039065	812.5856933593752	1.90263843536377	910.1210937500002	743.0405883789064	-37.21159362792969	839.7784423828127	745.2426757812501	11.07568550109863	
85	0.84	860.275329589844	916.4294433593752	-389.2544250488282	644.9072265625001	928.9133300781252	-302.9929504394532	658.4517211914064	928.0808715820315	-198.7654724121094	875.6140136718752	915.2846679687502	-141.8637084960938	771.4856567382815	809.1241455078127	-442.6217041015626	795.933532714844	438.1754150390626	-368.7101745605469	795.7003173828127	428.1421203613282	-245.4714660644532	776.2440185546877	380.7270812988282	-371.8764343261719	827.247497558594	370.4607849121094	-319.8910827636719	725.0908813476564	64.20371246337892	-315.0419921875001	745.9731445312501	70.85672760009767	-234.2907714843751	680.3381347656251	17.76650428771973	-261.9288635253907	855.3859863281252	19.65147018432618	-257.5232238769532	856.5090942382815	29.19716262817384	-309.1668090820313	798.3936767578127	13.57027244567871	-347.9942932128907	794.878356933594	812.493835449219	-71.39251708984376	904.5919189453127	454.890106201172	-114.8618698120117	923.139587402344	432.6689453125001	-239.3260040283204	875.3880615234377	411.946258544922	-110.5436782836914	924.4773559570315	379.4546813964844	-145.5810241699219	696.7552490234376	135.1230621337891	-133.4862365722657	740.1765136718751	125.1436538696289	-205.9428100585938	647.5905761718751	103.1219635009766	-192.5182342529297	800.611267089844	31.02240753173829	-168.5433959960938	794.2347412109377	48.95101928710939	-129.8569030761719	736.5219726562501	51.0426597595215	-89.63941955566408	759.0562744140626	1417.659057617188	-243.1558532714844	657.4205322265626	1180.43115234375	-260.4505615234376	924.215515136719	1082.756103515625	-270.7203369140626	870.5706176757815	1333.771484375	-257.8626403808594	653.2480468750001	1230.016357421875	-343.0959167480469	696.4347534179689	1358.207763671875	-348.5575866699219	736.9505004882814	1365.298706054688	-412.8001403808595	787.5677490234377	1371.603271484375	-426.5589904785157	743.5048217773439	1062.2509765625	-505.8814392089845	726.3526000976564	1051.346435546875	-429.6960449218751	717.8933105468751	1037.721313476563	-477.665252685547	840.112243652344	839.8320312500002	-499.2885742187501	771.1048583984377	839.9028930664065	-540.2774047851564	861.9727172851565	778.452331542969	-514.6000976562501	771.0686645507815	778.4625244140627	-545.5288085937501	656.2742919921876	1219.68408203125	-177.5466461181641	701.7135620117189	1342.868408203125	-167.7327117919922	755.7342529296876	1341.420166015625	-98.40598297119143	804.3729248046877	1344.985229492188	-81.57559204101564	783.8684082031252	1026.416381835938	-20.48074340820313	745.1972656250001	1017.419921875	-82.28102111816408	757.0971679687501	996.1357421875002	-37.85057830810548	882.342956542969	816.7995605468752	-41.11608886718751	836.0853271484377	812.4832763671877	1.916385889053345	914.8242187500002	742.1622314453126	-36.62846374511719	844.3804321289065	745.0783081054689	11.20748615264893	
